# xmcd
#
# Track frame offsets: 
#        150
#        22390
#        43480
#        70200
#        90462
#        116455
#        140800
#        163208
#        189880
#        212887
#
# Disc length: 3200 seconds
#
# Revision: 0
# Processed by: cddbd v1.5.2PL0 Copyright (c) Steve Scherf et al.
# Submitted via: ExactAudioCopy v1.0b3
#
DISCID=990c7e0a
DTITLE=Duy Linh - Tra Em Cay Dang Mong Vang
DYEAR=1998
DGENRE=
TTITLE0=Tra em cay dang mong vang
TTITLE1=Qua cau hat ly xa nhau
TTITLE2=Duy Linh, Yen Phuong - Mai tranh mo
TTITLE3=Duyen tinh ly ngua o
TTITLE4=Cau tre que huong
TTITLE5=Duy Linh, Yen Phuong - Trang hon tui
TTITLE6=Hinh bong que nha
TTITLE7=Dieu buon phuong Nam
TTITLE8=Duy Linh, Yen Phuong - Ve que ngoai
TTITLE9=Me ngoi sang gao
EXTD=
EXTT0=
EXTT1=
EXTT2=
EXTT3=
EXTT4=
EXTT5=
EXTT6=
EXTT7=
EXTT8=
EXTT9=
PLAYORDER=
